# xmcd CD database file
#
# Track frame offsets:
#	150
#	15657
#	30120
#	44405
#	58952
#	73655
#	88650
#	102810
#	115225
#	128070
#	142477
#	155862
#	171922
#	185342
#	199132
#	211810
#	226645
#	238847
#	251842
#	267437
#	286570
#	308727
#	327897
#
# Disc length: 4712 seconds
#
# Revision: 0
# Processed by: cddbd v1.5.1PL0 Copyright (c) Steve Scherf et al.
# Submitted via: CDex 1.51
#
DISCID=4d126617
DTITLE=Sidney BECHET - The Chronological Sidney BECHET - 1950-1951
DYEAR=2003
DGENRE=Jazz
TTITLE0=Society Blues
TTITLE1=Won't you Please Come Home, Bill Bailey
TTITLE2=Royal Garden Blues
TTITLE3=In The Groove
TTITLE4=Promenade aux Champs Elysées
TTITLE5=En attendant le jour
TTITLE6=Volverine Blues
TTITLE7=Egyptian Fantasy
TTITLE8=Blues In The Cave
TTITLE9=King Porter Stomp
TTITLE10=Dutch Swing College Blues
TTITLE11=Kansas City Man Blues
TTITLE12=Together
TTITLE13=Apex Blues
TTITLE14=Sleepy Time Gal
TTITLE15=Of All The Wrongs ...
TTITLE16=Darling Nelly Gray
TTITLE17=Mets ton vieux bonnet gris
TTITLE18=Sidney's Wedding Day
TTITLE19=Original Dixieland One Step
TTITLE20=Avalon
TTITLE21=That's A Plenty
TTITLE22=Blues My Naughty Sweetie Gives To Me
EXTD=YEAR: 2003
EXTT0=
EXTT1=
EXTT2=
EXTT3=
EXTT4=
EXTT5=
EXTT6=
EXTT7=
EXTT8=
EXTT9=
EXTT10=
EXTT11=
EXTT12=
EXTT13=
EXTT14=
EXTT15=
EXTT16=
EXTT17=
EXTT18=
EXTT19=
EXTT20=
EXTT21=
EXTT22=
PLAYORDER=
